<svg width="448px" height="512px" xmlns="http://www.w3.org/2000/svg" xmlns:xlink="http://www.w3.org/1999/xlink">
<g style="">  <path d="M0.000000,88.000000 C0.000000,74.700000,10.700000,64.000000,24.000000,64.000000 L424.000000,64.000000 C437.300000,64.000000,448.000000,74.700000,448.000000,88.000000 C448.000000,101.300000,437.300000,112.000000,424.000000,112.000000 L24.000000,112.000000 C10.700000,112.000000,0.000000,101.300000,0.000000,88.000000 Z M0.000000,248.000000 C0.000000,234.700000,10.700000,224.000000,24.000000,224.000000 L424.000000,224.000000 C437.300000,224.000000,448.000000,234.700000,448.000000,248.000000 C448.000000,261.300000,437.300000,272.000000,424.000000,272.000000 L24.000000,272.000000 C10.700000,272.000000,0.000000,261.300000,0.000000,248.000000 Z M448.000000,408.000000 C448.000000,421.300000,437.300000,432.000000,424.000000,432.000000 L24.000000,432.000000 C10.700000,432.000000,0.000000,421.300000,0.000000,408.000000 C0.000000,394.700000,10.700000,384.000000,24.000000,384.000000 L424.000000,384.000000 C437.300000,384.000000,448.000000,394.700000,448.000000,408.000000 Z " style="fill: rgba(255, 255, 255, 1.000000); stroke-width: 0.000000px; stroke: rgba(0, 0, 0, 1.000000); " fill="#ffffff" stroke="#000000" stroke-width="0.000000" />
</g></svg>