<svg width="513px" height="512px" xmlns="http://www.w3.org/2000/svg" xmlns:xlink="http://www.w3.org/1999/xlink">
<g style="">  <path d="M368.000000,208.000000 C368.000000,119.634438,296.365562,48.000000,208.000000,48.000000 C119.634438,48.000000,48.000000,119.634438,48.000000,208.000000 C48.000000,296.365562,119.634438,368.000000,208.000000,368.000000 C296.365562,368.000000,368.000000,296.365562,368.000000,208.000000 Z M337.100006,371.100006 C301.700005,399.200006,256.800003,416.000008,208.000000,416.000008 C93.099998,416.000008,0.000000,322.900009,0.000000,208.000008 C0.000000,93.100006,93.099998,0.000008,208.000000,0.000008 C322.900002,0.000008,416.000000,93.100006,416.000000,208.000008 C416.000000,256.800007,399.200001,301.700005,371.099998,337.100014 L504.999992,471.000008 C514.399992,480.400007,514.399992,495.600008,504.999992,504.900009 C495.599993,514.200009,480.399992,514.300009,471.099991,504.900009 L337.100006,371.100006 Z " style="fill: rgba(255, 255, 255, 1.000000); stroke-width: 0.000000px; stroke: rgba(0, 0, 0, 1.000000); " fill="#ffffff" stroke="#000000" stroke-width="0.000000" />
</g></svg>