<svg viewBox="0 0 512 512" xmlns="http://www.w3.org/2000/svg"><path fill="#757575" d="M448.96 365.61c-100.78 19.19-193.83-57.86-193.83-160.2 0-58.893 31.56-112.84 82.57-141.87 25.83-14.7 19.33-53.86-10.02-59.28v0C312.25 1.4 296.6-.03 280.92-.03c-141.34 0-256 114.546-256 256 0 141.33 114.54 256 256 256 78.93 0 151.07-35.93 198.85-94.79 18.84-23.22-1.71-57.149-30.84-51.6ZM280.94 479.99c-123.72 0-224-100.29-224-224 0-123.72 100.28-224 224-224 13.98-.001 27.66 1.29 40.94 3.74 -58.98 33.56-98.75 96.96-98.75 169.67 0 122.606 111.61 214.52 231.81 191.63 -41.07 50.6-103.76 82.94-174.01 82.94Z"/></svg>